<svg width="261" height="67" viewBox="0 0 261 67" fill="none" xmlns="http://www.w3.org/2000/svg">
<path d="M215.12 40.9472C206.861 45.6391 200.558 49.2646 194.473 52.6768C192.3 53.9564 190.127 55.0228 188.171 56.5156C185.345 58.435 181.433 60.5677 183.607 64.6198C185.78 68.4586 189.909 66.7524 192.952 65.6861C196.212 64.8331 199.472 63.1269 202.514 61.634C216.641 55.0228 230.767 48.1982 244.676 41.3737C248.371 39.4543 252.283 37.7482 255.543 35.189C262.497 30.0706 262.063 24.9522 254.456 21.1134C244.242 15.995 233.81 11.3031 223.378 6.61127C219.031 4.47861 214.468 2.34595 209.904 0.853086C207.296 1.95503e-05 204.253 0.213266 201.428 0C200.558 5.97146 204.036 7.25107 207.078 8.74394C214.685 12.796 222.509 16.6348 230.115 20.6869C232.723 22.1797 235.549 23.6726 238.156 27.0849C234.245 27.5114 230.55 28.1512 226.638 28.3645C197.299 29.8573 168.176 31.3502 138.837 32.8431C96.2402 34.9757 53.8609 37.1084 11.2643 39.4543C7.78702 39.6676 4.30972 40.9472 0.18045 42.0135C4.09241 47.7717 8.65634 46.4921 12.3509 46.2789C33.2146 45.8523 54.2956 44.9992 75.1592 44.3594C120.146 42.8666 165.134 41.3737 210.121 39.8809C211.208 40.0941 211.86 40.3074 215.12 40.9472Z" fill="white"/>
</svg>
