<svg width="220" height="24" viewBox="0 0 220 24" fill="none" xmlns="http://www.w3.org/2000/svg">
<path d="M114.024 8.26525C114.024 4.10176 110.63 0.742981 106.501 0.742981H96.0752V23.0999H99.6089V4.24171H106.501C108.741 4.24171 110.49 6.06105 110.49 8.26525C110.49 10.1895 109.09 11.8339 107.236 12.1838L104.542 12.6736L111.68 23.0999H115.948L110.245 14.7729C112.554 13.4434 114.024 10.9243 114.024 8.26525Z" fill="white"/>
<path d="M68.1552 10.1546H56.2945V0.742981H52.7607V23.0999H56.2945V13.6883H68.1552V23.0999H71.6889V0.742981H68.1552V10.1546Z" fill="white"/>
<path d="M75.8523 23.1349H92.3663V19.6362H79.386V13.7233H91.0718V10.1896H79.386V4.27674H92.3663V0.778015H75.8523V23.1349Z" fill="white"/>
<path d="M27.0103 0.742981H23.4766V23.0999H27.0103V0.742981Z" fill="white"/>
<path d="M42.2295 0.742891H31.7683V23.0998H35.302V15.7524H42.2295C46.393 15.8574 49.8567 12.6036 49.9967 8.44009C50.1016 4.27661 46.8478 0.812862 42.6843 0.672913C42.4744 0.742887 42.3345 0.742891 42.2295 0.742891ZM46.2181 8.26516C46.2181 10.4694 44.3987 12.2537 42.2295 12.2537H35.302V4.20663H42.2295C44.3987 4.27661 46.2181 6.06096 46.2181 8.26516Z" fill="white"/>
<path d="M154.784 8.26525C154.784 4.10176 151.39 0.742981 147.262 0.742981H136.835V23.0999H140.369V4.24171H147.262C149.501 4.24171 151.25 6.06105 151.25 8.26525C151.25 10.1895 149.851 11.8339 147.996 12.1838L145.302 12.6736L152.44 23.0999H156.708L151.005 14.7729C153.314 13.4434 154.784 10.9243 154.784 8.26525Z" fill="white"/>
<path d="M115.353 4.31163H122.91V23.0998H126.549V4.31163H134.106V0.707947H115.353V4.31163Z" fill="white"/>
<path d="M220 4.24171V0.742981H203.521V23.0999H220V19.6011H207.02V13.6883H218.705V10.1546H207.02V4.24171H220Z" fill="white"/>
<path d="M170.948 0.742981H167.309L158.073 23.0999H161.886L169.163 5.53623L176.406 23.0999H180.219L171.123 0.987886L170.948 0.742981Z" fill="white"/>
<path d="M11.6158 4.06667C13.7151 4.06667 15.7443 4.90635 17.2138 6.41081L17.3537 6.55077L19.9428 3.9617L19.8029 3.82175C15.2545 -0.726598 7.97715 -0.761587 3.42881 3.78676C-1.11954 8.33511 -1.15453 15.6125 3.39382 20.1608C5.59802 22.365 8.53695 23.5896 11.6158 23.5896C14.6947 23.5896 17.6336 22.365 19.8029 20.1958L19.9428 20.0559L17.3537 17.4668L17.2138 17.5718C14.1349 20.6856 9.09675 20.6856 5.98288 17.6067C2.86901 14.5279 2.86901 9.4897 5.94789 6.37583C7.45235 4.94135 9.51659 4.10165 11.6158 4.06667Z" fill="white"/>
<path d="M191.52 4.0667C193.62 4.0667 195.649 4.90639 197.118 6.41084L197.258 6.5508L199.847 3.96173L199.707 3.82178C195.159 -0.726564 187.882 -0.726564 183.333 3.82178C178.785 8.37013 178.785 15.6475 183.333 20.1958C187.882 24.7442 195.159 24.7442 199.707 20.1958L199.847 20.0559L197.258 17.4668L197.118 17.6068C194.04 20.7206 189.001 20.7206 185.887 17.6418C182.774 14.5629 182.774 9.52471 185.852 6.41084C187.357 4.90639 189.386 4.0667 191.52 4.0667Z" fill="white"/>
<path d="M166.119 23.1349L170.283 13.0235L169.198 10.3645L163.915 23.1349H166.119Z" fill="#F79E1B"/>
</svg>
