<svg width="190" height="50" viewBox="0 0 190 50" fill="none" xmlns="http://www.w3.org/2000/svg">
<path d="M30.6046 36.1622L21.8372 39.9776V39.6123C20.0919 40.0588 18.3059 40.3023 16.4794 40.3835C8.2397 40.3023 1.70477 35.9998 1.62359 30.8855V28.9778C4.3025 32.915 9.86328 35.5533 16.4794 35.4316C18.6712 35.5128 20.8225 35.2286 22.9332 34.6604L23.7044 32.7527C21.3502 33.4833 18.9148 33.8892 16.4794 33.8892C8.2397 33.9298 1.70477 29.6273 1.62359 24.3912V22.8488C4.3025 26.5019 9.82269 29.0996 16.4794 28.9778C19.3613 29.1402 22.2431 28.6125 24.8409 27.4354L25.2062 25.5277C22.4867 26.8672 19.483 27.5572 16.4388 27.4354C8.19911 27.5572 1.66418 23.2547 1.583 17.9374V16.395C4.26191 20.1293 9.82269 22.727 16.4388 22.8488C20.0107 22.727 23.542 21.834 26.7486 20.2105L27.1139 17.9374C24.4756 19.8857 20.579 21.1846 16.4794 21.347C8.19911 21.144 1.66418 16.8415 1.583 11.4431C1.66418 6.3288 8.19911 1.9857 16.4388 1.94511C21.3502 2.02629 25.8962 3.77165 28.6157 6.53174L28.8998 6.93764H30.8075L30.5234 6.49116C27.8039 2.83809 22.4055 0.40271 16.3982 0.40271C7.30614 0.40271 0 5.43583 0 11.4431V31.2508C0.324717 37.1363 7.42791 41.9259 16.3982 41.9259C22.4055 41.8853 27.7227 39.5311 30.6046 36.1622Z" fill="white"/>
<path d="M27.0321 49.5972L30.117 36.5273L21.2684 40.3833L26.6668 17.6937H16.2759L18.9548 6.53156H52.0354L49.3564 17.6937H38.6002L36.2866 23.8633L48.2199 18.8708L27.0321 49.5972ZM32.4306 33.8078L30.8882 41.4793L43.5927 22.2398L33.2018 26.867L37.829 16.1107H48.2199L50.1276 8.03337H20.1319L18.2242 16.1107H28.6151L23.6226 37.6232L32.4306 33.8078Z" fill="white"/>
<path d="M72.5739 14.0003C72.5739 14.5685 72.4115 15.0962 72.2086 15.5832C71.965 16.0703 71.6403 16.5168 71.2344 16.8821C70.3008 17.6127 69.1643 18.0186 67.9872 17.9374C67.3378 17.978 66.6884 17.8563 66.0795 17.6127C65.4707 17.3692 64.943 16.9633 64.4965 16.4762C63.6442 15.5021 63.2383 14.122 63.2383 12.3767V11.6866C63.1977 10.6719 63.4006 9.69774 63.8065 8.76418C64.1718 7.95239 64.7401 7.30295 65.4707 6.81588C66.3637 6.3288 67.3784 6.08527 68.3931 6.16645C69.4079 6.24763 70.382 6.61293 71.1938 7.22177C72.0462 7.99298 72.5333 9.0889 72.6145 10.2254H70.2603C70.2603 9.61657 70.0573 9.04831 69.6514 8.60183C69.2049 8.23652 68.5961 8.07416 68.0278 8.11475C67.7031 8.07416 67.3378 8.15534 67.0131 8.3177C66.6884 8.48006 66.4448 8.683 66.2419 8.96713C65.836 9.53538 65.633 10.4284 65.633 11.6055V12.4578C65.633 13.7161 65.836 14.6091 66.2013 15.1773C66.4042 15.4615 66.6478 15.705 66.9725 15.8268C67.2972 15.9891 67.6219 16.0297 67.9872 16.0297C68.5961 16.0703 69.1643 15.908 69.6108 15.5427C70.0167 15.1368 70.2197 14.5685 70.2197 14.0003H72.5739Z" fill="white"/>
<path d="M83.5738 12.336C83.6144 13.3507 83.4115 14.3655 82.965 15.2991C82.5997 16.1108 81.9909 16.8009 81.2602 17.2879C80.489 17.7344 79.5961 17.978 78.7031 17.978C77.8101 17.978 76.9172 17.7344 76.1459 17.2879C75.3747 16.8009 74.7659 16.1514 74.4006 15.3396C73.9947 14.4061 73.7512 13.4319 73.7917 12.4172V11.8489C73.7512 10.8342 73.9947 9.81945 74.4006 8.8453C74.7659 8.0335 75.3747 7.34348 76.1459 6.8564C76.9172 6.40992 77.8101 6.16638 78.7031 6.16638C79.5961 6.16638 80.489 6.40992 81.2602 6.8564C82.0315 7.34348 82.5997 8.0335 83.0056 8.8453C83.4115 9.77886 83.655 10.7936 83.6144 11.8083V12.336H83.5738ZM81.1791 11.8083C81.1791 10.5907 80.9761 9.69768 80.5296 9.04824C80.3267 8.76412 80.0426 8.52058 79.7178 8.35822C79.3931 8.19586 79.0278 8.11469 78.7031 8.11469C78.3378 8.11469 77.9725 8.19586 77.6884 8.35822C77.3636 8.52058 77.0795 8.76412 76.8766 9.04824C76.4301 9.65709 76.2271 10.5907 76.2271 11.7678V12.336C76.1865 13.2696 76.3895 14.2437 76.8766 15.0555C77.0795 15.3396 77.3636 15.5832 77.6884 15.7455C78.0131 15.9079 78.3784 15.9891 78.7437 15.9891C79.109 15.9891 79.4743 15.9079 79.799 15.7455C80.1237 15.5832 80.4079 15.3396 80.6108 15.0555C81.0167 14.4467 81.2602 13.5131 81.2602 12.336V11.8083H81.1791Z" fill="white"/>
<path d="M87.7954 17.775H85.4412V6.28815H87.7954V17.775Z" fill="white"/>
<path d="M99.3229 17.775H96.9687L92.382 10.2253V17.775H90.0278V6.28815H92.382L97.0092 13.8378V6.28815H99.3635V17.775H99.3229Z" fill="white"/>
<path d="M109.795 8.23645H106.263V17.8156H103.95V8.23645H100.5V6.32874H109.835V8.23645H109.795Z" fill="white"/>
<path d="M118.075 12.8231H113.529V15.9079H118.847V17.8156H111.135V6.32874H118.806V8.23645H113.489V10.956H118.035V12.8231H118.075Z" fill="white"/>
<path d="M122.621 15.8673H127.654V17.775H120.267V6.28815H122.621V15.8673Z" fill="white"/>
<path d="M135.894 12.8231H131.348V15.9079H136.665V17.8156H128.953V6.32874H136.624V8.23645H131.307V10.956H135.853V12.8231H135.894Z" fill="white"/>
<path d="M147.178 16.3546C146.691 16.9229 146.082 17.3288 145.392 17.5317C144.58 17.8158 143.687 17.9782 142.794 17.9376C141.86 17.9782 140.967 17.7347 140.196 17.2882C139.425 16.8417 138.816 16.1923 138.451 15.3805C138.004 14.4875 137.801 13.4727 137.842 12.458V11.6868C137.801 10.6721 138.004 9.65732 138.41 8.72376C138.776 7.91197 139.344 7.26253 140.074 6.81604C140.846 6.36955 141.739 6.12602 142.632 6.16661C144.012 6.16661 145.067 6.49133 145.838 7.14076C146.65 7.87137 147.137 8.88612 147.218 9.98204H144.905C144.864 9.41378 144.62 8.92671 144.215 8.52081C143.809 8.19609 143.281 8.03373 142.713 8.07432C142.347 8.07432 141.982 8.11491 141.657 8.27727C141.333 8.43963 141.049 8.68317 140.846 8.96729C140.44 9.57614 140.196 10.4691 140.196 11.6462V12.3768C140.196 13.5945 140.44 14.4875 140.886 15.0963C141.13 15.4211 141.414 15.6646 141.779 15.827C142.145 15.9893 142.51 16.0705 142.916 16.0299C143.809 16.0299 144.418 15.8269 144.823 15.4616V13.4727H142.672V11.7274H147.178V16.3546Z" fill="white"/>
<path d="M153.307 13.5943H151.44V17.8156H149.086V6.32874H153.348C154.687 6.32874 155.742 6.61286 156.473 7.22171C156.838 7.54642 157.122 7.91173 157.325 8.35822C157.528 8.8047 157.61 9.29178 157.569 9.77886C157.61 10.4689 157.407 11.1589 157.041 11.7272C156.676 12.2954 156.108 12.7013 155.499 12.9854L157.975 17.6938V17.8156H155.418L153.307 13.5943ZM151.44 11.646H153.348C153.835 11.6866 154.362 11.5242 154.728 11.1995C154.89 11.0371 155.012 10.8342 155.093 10.6312C155.174 10.4283 155.215 10.1848 155.215 9.94122C155.215 9.69768 155.174 9.49473 155.134 9.25119C155.052 9.04824 154.931 8.84529 154.768 8.64234C154.565 8.47999 154.362 8.35822 154.119 8.27704C153.875 8.19586 153.632 8.15527 153.348 8.19586H151.44V11.646Z" fill="white"/>
<path d="M165.849 15.4208H161.709L160.938 17.775H158.421L162.683 6.28815H164.875L169.178 17.775H166.661L165.849 15.4208ZM162.359 13.5131H165.24L163.779 9.2106L162.359 13.5131Z" fill="white"/>
<path d="M172.628 13.7566V17.8156H170.274V6.32874H174.739C175.51 6.32874 176.281 6.49109 177.012 6.81581C177.621 7.09994 178.148 7.58701 178.514 8.15527C178.879 8.76411 179.041 9.45414 179.041 10.1442C179.082 10.6312 178.96 11.1589 178.757 11.6054C178.554 12.0519 178.27 12.4578 177.864 12.7825C177.093 13.4319 176.038 13.7566 174.658 13.7566H172.628ZM172.628 11.8083H174.739C175.266 11.8489 175.754 11.6866 176.159 11.3619C176.322 11.1995 176.444 10.9965 176.565 10.7936C176.647 10.5906 176.687 10.3471 176.687 10.1036C176.687 9.86004 176.647 9.6165 176.565 9.37296C176.484 9.12942 176.362 8.92648 176.2 8.72353C176.038 8.56117 175.794 8.39881 175.551 8.31763C175.307 8.23645 175.064 8.19586 174.82 8.19586H172.669V11.8083H172.628Z" fill="white"/>
<path d="M190 17.775H187.646V12.8637H183.019V17.775H180.665V6.28815H183.019V10.956H187.646V6.28815H190V17.775Z" fill="white"/>
<path d="M70.6262 30.0739H67.7038V38.0295H65.7149V30.0739H62.833V28.4909H70.6262V30.0739Z" fill="white"/>
<path d="M73.467 31.6971C73.7106 31.413 73.9947 31.1694 74.3194 31.0071C74.6441 30.8447 75.0095 30.7635 75.3748 30.7635C76.9172 30.7635 77.6884 31.6565 77.729 33.4424V37.9885H75.8212V33.483C75.8618 33.1583 75.7401 32.8336 75.5777 32.59C75.4559 32.4683 75.3342 32.3871 75.1718 32.3465C75.0095 32.3059 74.8471 32.2653 74.6847 32.3059C74.4412 32.3059 74.1977 32.3465 73.9947 32.4683C73.7918 32.5901 73.5888 32.7524 73.467 32.9554V37.9885H71.5593V27.8817H73.467V31.6971Z" fill="white"/>
<path d="M82.3968 38.1917C81.9098 38.1917 81.4633 38.1511 81.0168 37.9887C80.5703 37.8264 80.1644 37.5828 79.8397 37.2581C79.515 36.9334 79.2309 36.5275 79.0685 36.081C78.9061 35.6345 78.825 35.188 78.825 34.701V34.498C78.825 33.8486 78.9467 33.1991 79.2308 32.5903C79.4744 32.0626 79.8803 31.6161 80.4079 31.2914C80.9356 30.9667 81.5445 30.8043 82.1533 30.8449C82.5998 30.8043 83.0057 30.8855 83.4116 31.0479C83.8175 31.2102 84.1828 31.4538 84.4669 31.7785C85.0352 32.3873 85.3193 33.2803 85.3193 34.3762V35.1474H80.8138C80.8544 35.5939 81.0574 35.9592 81.3821 36.2839C81.7068 36.5681 82.1127 36.7304 82.5592 36.6898C82.8839 36.6898 83.2086 36.6493 83.5334 36.4869C83.8175 36.3651 84.1016 36.1216 84.3046 35.8781L85.2381 36.9334C84.954 37.3393 84.5481 37.664 84.1016 37.8669C83.5334 38.0699 82.9651 38.1917 82.3968 38.1917ZM82.1939 32.3468C82.0315 32.3468 81.8692 32.3873 81.7068 32.4279C81.5445 32.5091 81.4227 32.5903 81.3009 32.7121C81.0574 33.0368 80.895 33.4021 80.8544 33.808H83.4928V33.6456C83.4928 33.2803 83.371 32.9556 83.168 32.6715C83.0463 32.5497 82.8839 32.4685 82.7216 32.3873C82.5186 32.3468 82.3562 32.3468 82.1939 32.3468Z" fill="white"/>
<path d="M90.2714 38.0292V32.3061H89.2161V30.926H90.2714V30.3172C90.2308 29.9925 90.312 29.6272 90.4338 29.3025C90.5555 28.9777 90.7179 28.6936 90.9614 28.4501C91.4891 28.0036 92.1791 27.7601 92.8691 27.8006C93.1939 27.8006 93.5186 27.8412 93.8433 27.9224V29.3836C93.6403 29.343 93.478 29.3025 93.275 29.343C92.5444 29.343 92.2197 29.6678 92.2197 30.3578V30.926H93.6403V32.3061H92.1791V38.0292H90.2714Z" fill="white"/>
<path d="M98.8356 37.339C98.5921 37.6231 98.3079 37.8666 97.9832 37.9884C97.6585 38.1507 97.2932 38.1913 96.9279 38.1913C96.6032 38.2319 96.2784 38.1507 95.9943 38.0696C95.7102 37.9478 95.4261 37.7854 95.1825 37.5419C94.736 37.0142 94.5331 36.3242 94.5737 35.6342V30.9664H96.4814V35.553C96.4814 36.2836 96.8061 36.6489 97.4961 36.6489C97.7397 36.6895 98.0238 36.6083 98.2673 36.5272C98.5109 36.4054 98.7138 36.243 98.8356 35.9995V30.9664H100.743V38.0696H98.9574L98.8356 37.339Z" fill="white"/>
<path d="M104.397 29.1805V30.9258H105.615V32.3059H104.397V35.8372C104.397 36.0401 104.438 36.2431 104.559 36.4054C104.641 36.4866 104.722 36.5272 104.843 36.5678C104.925 36.6084 105.046 36.6084 105.168 36.6084C105.371 36.6084 105.534 36.6084 105.736 36.5678V37.9884C105.371 38.1102 104.965 38.1508 104.6 38.1508C103.26 38.1508 102.57 37.4608 102.57 36.1213V32.3059H101.515V30.9258H102.57V29.1805H104.397Z" fill="white"/>
<path d="M110.931 37.339C110.688 37.6231 110.403 37.8666 110.079 37.9884C109.754 38.1507 109.389 38.1913 109.023 38.1913C108.699 38.2319 108.374 38.1507 108.09 38.0696C107.806 37.9478 107.522 37.7854 107.278 37.5419C106.831 37.0142 106.629 36.3242 106.669 35.6342V30.9664H108.577V35.553C108.577 36.2836 108.902 36.6489 109.592 36.6489C109.835 36.6895 110.119 36.6083 110.363 36.5272C110.606 36.4054 110.809 36.243 110.931 35.9995V30.9664H112.839V38.0696H111.053L110.931 37.339Z" fill="white"/>
<path d="M118.197 32.7119C117.953 32.6713 117.75 32.6713 117.507 32.6713C116.776 32.6713 116.33 32.9148 116.086 33.4019V38.0697H114.178V30.9665H115.964L116.005 31.8189C116.167 31.5348 116.37 31.2913 116.654 31.0883C116.939 30.926 117.263 30.8042 117.588 30.8448C117.791 30.8448 117.994 30.8854 118.197 30.926V32.7119Z" fill="white"/>
<path d="M122.256 38.1917C121.769 38.1917 121.322 38.1511 120.876 37.9887C120.429 37.8264 120.023 37.5828 119.699 37.2581C119.374 36.9334 119.09 36.5275 118.927 36.081C118.765 35.6345 118.684 35.188 118.684 34.701V34.498C118.684 33.8486 118.806 33.1991 119.09 32.5903C119.333 32.0626 119.739 31.6161 120.267 31.2914C120.795 30.9667 121.403 30.8043 122.012 30.8449C122.459 30.8043 122.865 30.8855 123.27 31.0479C123.676 31.2102 124.042 31.4538 124.326 31.7785C124.894 32.3873 125.178 33.2803 125.178 34.3762V35.1474H120.632C120.673 35.5939 120.876 35.9592 121.2 36.2839C121.525 36.5681 121.931 36.7304 122.377 36.6898C122.702 36.6898 123.027 36.6493 123.352 36.4869C123.636 36.3651 123.92 36.1216 124.123 35.8781L125.056 36.9334C124.772 37.3393 124.366 37.664 123.92 37.8669C123.352 38.0699 122.824 38.1917 122.256 38.1917ZM122.012 32.3468C121.85 32.3468 121.687 32.3873 121.525 32.4279C121.363 32.5091 121.241 32.5903 121.119 32.7121C120.876 33.0368 120.713 33.4021 120.673 33.808H123.311V33.6456C123.311 33.2803 123.189 32.9556 122.986 32.6715C122.865 32.5497 122.702 32.4685 122.54 32.3873C122.377 32.3468 122.215 32.3468 122.012 32.3468Z" fill="white"/>
<path d="M129.319 34.4168C129.319 33.7674 129.44 33.1179 129.725 32.5497C129.968 32.022 130.374 31.5755 130.902 31.2508C131.429 30.9261 132.038 30.8043 132.688 30.8043C133.134 30.8043 133.54 30.8449 133.946 31.0073C134.352 31.1696 134.717 31.3726 135.042 31.6973C135.691 32.3467 136.016 33.1991 136.056 34.0921V34.5792C136.097 35.5533 135.772 36.4869 135.164 37.2175C134.514 37.8669 133.621 38.1916 132.728 38.1916C131.795 38.1916 130.942 37.8263 130.293 37.2175C129.643 36.4869 129.319 35.5127 129.359 34.5386V34.4168H129.319ZM131.186 34.5792C131.145 35.1068 131.267 35.6751 131.551 36.1216C131.673 36.2839 131.835 36.4057 132.038 36.5275C132.241 36.6086 132.444 36.6492 132.647 36.6898C132.85 36.6898 133.053 36.6492 133.256 36.5681C133.459 36.4869 133.621 36.3245 133.743 36.1622C134.027 35.6345 134.189 35.0662 134.149 34.4574C134.189 33.9297 134.027 33.3615 133.743 32.915C133.621 32.7526 133.459 32.5903 133.256 32.5091C133.053 32.4279 132.85 32.3873 132.647 32.3873C132.444 32.3873 132.241 32.4279 132.038 32.5091C131.835 32.5903 131.673 32.7526 131.551 32.915C131.307 33.4021 131.145 33.9703 131.186 34.5792Z" fill="white"/>
<path d="M137.72 38.0292V32.3061H136.665V30.926H137.72V30.3172C137.68 29.9925 137.761 29.6272 137.883 29.3025C138.004 28.9777 138.167 28.6936 138.41 28.4501C138.938 28.0036 139.628 27.7601 140.318 27.8006C140.643 27.8006 140.968 27.8412 141.292 27.9224V29.3836C141.089 29.343 140.927 29.3025 140.724 29.343C139.993 29.343 139.669 29.6678 139.669 30.3578V30.926H141.089V32.3061H139.669V38.0292H137.72Z" fill="white"/>
<path d="M147.178 30.9261L147.219 31.7379C147.462 31.4538 147.787 31.2102 148.112 31.0479C148.477 30.8855 148.842 30.8043 149.248 30.8449C149.654 30.8043 150.019 30.8855 150.344 31.0885C150.669 31.2914 150.953 31.5756 151.115 31.9409C151.359 31.5756 151.684 31.2914 152.049 31.1291C152.414 30.9261 152.82 30.8449 153.267 30.8855C153.591 30.8449 153.916 30.9261 154.2 31.0073C154.484 31.1291 154.768 31.2914 154.971 31.535C155.377 32.1438 155.58 32.8338 155.54 33.5644V38.1105H153.632V33.5644C153.673 33.2397 153.591 32.9556 153.388 32.6715C153.267 32.5497 153.145 32.4685 152.982 32.4279C152.82 32.3873 152.698 32.3468 152.536 32.3873C152.292 32.3873 152.008 32.4279 151.805 32.5903C151.602 32.7526 151.44 32.9556 151.359 33.1991V38.0699H149.451V33.5239C149.492 33.1991 149.411 32.8744 149.208 32.6309C149.086 32.5091 148.964 32.4685 148.842 32.3873C148.68 32.3468 148.558 32.3062 148.396 32.3468C148.152 32.3468 147.909 32.3873 147.706 32.5091C147.503 32.6309 147.341 32.7932 147.219 33.0368V38.0699H145.311V30.9667H147.178V30.9261Z" fill="white"/>
<path d="M156.716 34.4168C156.716 33.7674 156.838 33.1179 157.122 32.5497C157.366 32.022 157.772 31.5755 158.299 31.2508C158.827 30.9261 159.436 30.8043 160.085 30.8043C160.532 30.8043 160.938 30.8449 161.344 31.0073C161.749 31.1696 162.115 31.3726 162.439 31.6973C163.089 32.3467 163.414 33.1991 163.454 34.0921V34.5792C163.495 35.5533 163.17 36.4869 162.561 37.2175C161.912 37.8669 161.019 38.1916 160.126 38.1916C159.233 38.1916 158.34 37.8263 157.69 37.2175C157.041 36.4869 156.716 35.5127 156.757 34.5386V34.4168H156.716ZM158.624 34.5792C158.583 35.1068 158.705 35.6751 158.989 36.1216C159.111 36.2839 159.273 36.4057 159.476 36.5275C159.679 36.6086 159.882 36.6492 160.085 36.6898C160.288 36.7304 160.491 36.6492 160.694 36.5681C160.897 36.4869 161.059 36.3245 161.181 36.1622C161.465 35.6345 161.628 35.0662 161.587 34.4574C161.628 33.9297 161.465 33.3615 161.181 32.915C161.059 32.7526 160.897 32.5903 160.694 32.5091C160.491 32.4279 160.288 32.3873 160.085 32.3873C159.882 32.3873 159.679 32.4279 159.476 32.5091C159.273 32.5903 159.111 32.7526 158.989 32.915C158.705 33.4021 158.583 33.9703 158.624 34.5792Z" fill="white"/>
<path d="M166.377 30.926L166.418 31.7378C166.661 31.4131 166.986 31.1696 167.311 31.0072C167.676 30.8448 168.041 30.7637 168.447 30.7637C168.772 30.7231 169.056 30.8043 169.381 30.8854C169.665 31.0072 169.949 31.1696 170.152 31.4131C170.558 31.9814 170.761 32.6714 170.72 33.402V37.9886H168.812V33.4426C168.853 33.1179 168.731 32.7932 168.569 32.5496C168.447 32.4684 168.325 32.3873 168.163 32.3061C168.001 32.2655 167.838 32.2249 167.716 32.2655C167.473 32.2655 167.229 32.3061 167.026 32.4278C166.823 32.5496 166.62 32.712 166.539 32.9555V37.9886H164.632V30.8854H166.377V30.926Z" fill="white"/>
<path d="M175.469 38.1917C174.982 38.1917 174.536 38.1511 174.089 37.9887C173.643 37.8264 173.237 37.5828 172.912 37.2581C172.587 36.9334 172.303 36.5275 172.141 36.081C171.979 35.6345 171.897 35.188 171.897 34.701V34.498C171.897 33.8486 172.019 33.1991 172.303 32.5903C172.547 32.0626 172.953 31.6161 173.48 31.2914C174.008 30.9667 174.617 30.8043 175.226 30.8449C175.672 30.8043 176.078 30.8855 176.484 31.0479C176.89 31.2102 177.255 31.4538 177.539 31.7785C178.108 32.3873 178.392 33.2803 178.392 34.3762V35.1474H173.846C173.886 35.5939 174.089 35.9592 174.414 36.2839C174.739 36.5681 175.145 36.7304 175.591 36.6898C175.916 36.6898 176.241 36.6493 176.565 36.4869C176.849 36.3651 177.134 36.1216 177.336 35.8781L178.27 36.9334C177.986 37.3393 177.58 37.664 177.134 37.8669C176.565 38.0699 175.997 38.1917 175.469 38.1917ZM175.226 32.3468C175.063 32.3468 174.901 32.3873 174.739 32.4279C174.576 32.5091 174.455 32.5903 174.333 32.7121C174.089 33.0368 173.927 33.4021 173.886 33.808H176.525V33.6456C176.525 33.2803 176.403 32.9556 176.2 32.6715C176.078 32.5497 175.916 32.4685 175.753 32.3873C175.591 32.3468 175.388 32.3468 175.226 32.3468Z" fill="white"/>
<path d="M182.003 35.3505L183.302 30.9262H185.332L182.49 39.1253L182.328 39.4906C182.166 39.8965 181.881 40.2618 181.516 40.5054C181.151 40.7489 180.704 40.8707 180.258 40.8707C179.974 40.8707 179.69 40.8301 179.405 40.7489V39.3283H179.69C179.974 39.3283 180.258 39.2877 180.501 39.1659C180.704 39.0441 180.826 38.8412 180.907 38.6382L181.151 38.07L178.675 30.9262H180.704L182.003 35.3505Z" fill="white"/>
</svg>
