<svg width="146" height="40" viewBox="0 0 146 40" fill="none" xmlns="http://www.w3.org/2000/svg">
<path d="M143.874 19.57L142.567 19.97C141.311 15.17 139.207 13.096 136.236 13.096C134.149 13.096 132.681 14.643 132.681 17.096C132.681 19.444 134.412 20.696 139.063 22.824C143.356 24.6 145.139 26.776 145.139 30.576C145.139 36.361 141.099 39.989 134.472 39.989C131.272 39.989 127.667 39.187 125.629 38.271L125.375 30.233L126.631 29.947C128.515 35.447 130.924 37.527 134.065 37.527C136.78 37.527 138.207 35.407 138.207 33.231C138.207 31.055 137.105 29.794 132.861 28.076C128.822 26.576 126.056 24.639 126.056 19.809C126.056 15.055 129.771 11.026 136.103 11.026C139.09 11.026 141.805 11.599 143.587 12.526L143.874 19.57ZM116.531 22.09C116.684 18.31 116.005 12.85 113.239 12.85C110.395 12.85 108.843 17.948 108.793 22.32L116.531 22.09ZM113.918 11.016C120.876 11.016 124.229 16.744 124.288 24.266H108.64C108.589 30.929 111.729 35.97 117.6 35.97C120.163 35.97 121.639 35.168 123.2 33.908L123.929 34.824C122.198 37.459 118.634 39.979 113.882 39.979C106.244 39.979 100.948 34.079 100.948 25.755C100.931 18.232 105.277 11.015 113.915 11.015M91.3457 24.955C91.1928 18.998 89.2586 14.282 85.5412 14.282C84.6586 14.282 83.9794 14.454 82.9279 14.855L83.2337 37.748C83.607 37.92 84.4897 38.034 85.1181 38.034C88.7332 38.034 91.3465 32.287 91.3465 24.954M99.103 24.496C99.103 33.909 93.8079 39.98 84.863 39.98C81.663 39.98 78.3625 39.407 75.4941 38.663C75.7483 34.883 75.7483 11.463 75.4941 7.063C75.2399 4.763 74.6621 3.683 73.0941 3.463L72.0417 3.348V2.298L83.0799 0C83.0292 1.947 82.927 7.064 82.927 13.08C84.8621 11.992 86.6425 11.362 89.0541 11.362C94.8079 11.362 99.1012 16.862 99.1012 24.498M70.9803 19.38C67.5688 16.86 63.903 17.948 63.1732 19.38C62.8506 23.78 62.919 30.58 63.2239 34.063C63.3768 36.363 63.9528 37.328 65.5323 37.5L67.6194 37.73V39.23H52.0221V37.73L53.2274 37.5C54.7386 37.328 55.2719 36.354 55.3661 34.063C55.7394 30.34 55.8417 22.531 55.3661 18.235C55.2639 15.772 54.7386 14.855 53.2274 14.635L52.0221 14.463V13.433L63.1723 11.027L63.0194 17.442C65.6328 10.798 70.8265 9.996 73.6434 11.772L70.9803 19.38ZM34.3892 25.528C34.3892 32.535 36.0781 38.263 39.4559 38.263C43.1217 38.263 44.1741 32.65 44.1741 25.528C44.1741 18.406 42.5528 12.85 39.1066 12.85C35.4239 12.85 34.3892 18.292 34.3892 25.528ZM52.0728 25.413C52.0728 33.451 47.3546 39.981 38.9368 39.981C30.655 39.981 26.4799 33.776 26.4799 25.641C26.4799 17.661 31.1981 11.016 39.6159 11.016C47.8977 11.016 52.0728 17.26 52.0728 25.413ZM30.4008 11.6L28.6701 12.173C27.2106 6.541 24.631 3.333 20.1839 3.333H14.3794C14.0568 7.075 13.9039 12.86 14.0568 19.103L17.9261 18.873C20.5394 18.873 21.6417 16.753 22.271 13.661H23.7306V26.681H22.271C21.6434 23.531 20.5403 21.381 17.9261 21.221L14.0568 21.164C14.0568 25.804 14.1074 29.764 14.3794 32.181C14.6337 35.618 15.4817 37.183 17.7217 37.508L19.8266 37.738V39.238H0.870117V37.738L2.44878 37.508C4.63812 37.164 5.53767 35.608 5.79101 32.181C6.21501 26.568 6.31723 14.577 5.79101 7.914C5.53678 4.364 4.63723 2.931 2.44878 2.644L0.870117 2.358V0.81H30.351L30.4008 11.6Z" fill="white"/>
</svg>
