<svg width="42" height="160" viewBox="0 0 42 160" fill="none" xmlns="http://www.w3.org/2000/svg">
<g clip-path="url(#clip0_142_127)">
<path d="M16.4428 132.121C13.5716 127.044 11.353 123.17 9.26491 119.43C8.48187 118.094 7.82936 116.758 6.91581 115.555C5.74126 113.819 4.43616 111.414 1.95655 112.75C-0.39257 114.086 0.651482 116.624 1.30402 118.494C1.82604 120.498 2.8701 122.502 3.78365 124.372C7.82935 133.056 12.0056 141.739 16.1818 150.289C17.3563 152.56 18.4004 154.965 19.9664 156.968C23.0986 161.243 26.2307 160.976 28.5799 156.3C31.712 150.022 34.5832 143.609 37.4543 137.197C38.7594 134.525 40.0644 131.72 40.978 128.914C41.5 127.311 41.3695 125.441 41.5 123.704C37.8458 123.17 37.0628 125.308 36.1492 127.178C33.6696 131.853 31.3205 136.663 28.8409 141.338C27.9273 142.941 27.0138 144.678 24.9257 146.281C24.6647 143.877 24.2732 141.606 24.1426 139.201C23.2291 121.166 22.3156 103.265 21.402 85.2305C20.0969 59.0468 18.7919 32.9968 17.3563 6.81311C17.2258 4.67566 16.4428 2.53821 15.7902 0C12.2666 2.40462 13.0496 5.21002 13.1801 7.48106C13.4411 20.3057 13.9632 33.2639 14.3547 46.0886C15.2682 73.7417 16.1817 101.395 17.0953 129.048C16.9648 129.716 16.8343 130.117 16.4428 132.121Z" fill="white"/>
</g>
<defs>
<clipPath id="clip0_142_127">
<rect width="160" height="41" fill="white" transform="matrix(0 -1 -1 0 41.5 160)"/>
</clipPath>
</defs>
</svg>
