<svg width="860" height="936" viewBox="0 0 860 936" fill="none" xmlns="http://www.w3.org/2000/svg">
<path d="M780.456 276.815C779.874 277.146 779.141 277.118 778.618 276.707L633.537 161.391C632.867 160.858 632.792 159.88 633.371 159.188C633.923 158.528 634.944 158.368 635.647 158.882L667.019 182.377C667.033 182.386 667.047 182.394 667.057 182.413L780.766 274.234C781.44 274.773 781.502 275.759 780.91 276.442C780.78 276.598 780.622 276.721 780.456 276.815Z" fill="white"/>
<path d="M666.746 184.994C666.343 185.223 665.847 185.291 665.396 185.144L475.912 124.325C475.098 124.063 474.673 123.21 474.956 122.398C475.235 121.581 476.116 121.097 476.962 121.291L635.074 158.615C635.277 158.664 635.478 158.756 635.646 158.882L667.018 182.378C667.629 182.837 667.784 183.679 667.387 184.366C667.223 184.632 667.004 184.847 666.746 184.994ZM515.709 133.725L657.263 179.157L633.824 161.606L515.709 133.725Z" fill="white"/>
<path d="M175.003 316.499C174.368 316.861 173.566 316.79 173.058 316.297C172.457 315.716 172.46 314.768 173.05 314.128L286.162 192.758C286.436 192.471 286.783 192.281 287.155 192.226L318.449 187C319.162 186.883 319.847 187.226 320.13 187.847C320.42 188.464 320.247 189.221 319.696 189.699L175.29 316.295C175.201 316.37 175.103 316.443 175.003 316.499ZM288.124 195.24L196.445 293.61L313.491 190.997L288.124 195.24Z" fill="white"/>
<path d="M477.263 124.173C477.203 124.207 477.133 124.239 477.07 124.266L319.217 189.996L287.539 195.333C286.71 195.476 285.939 194.984 285.759 194.205C285.572 193.43 286.043 192.611 286.828 192.313L475.976 121.357C476.821 121.041 477.729 121.422 478.03 122.214C478.3 122.95 477.964 123.775 477.263 124.173ZM302.948 189.591L318.449 186.999L396.042 154.667L302.948 189.591Z" fill="white"/>
<path d="M668.312 743.148C667.756 743.464 667.05 743.454 666.532 743.082C665.87 742.61 665.72 741.699 666.187 740.997L782.71 565.375C783.132 564.764 783.89 564.465 784.585 564.655C785.283 564.851 785.734 565.475 785.694 566.189L782.279 620.436C782.252 620.805 782.098 621.164 781.837 621.444L668.729 742.82C668.602 742.95 668.464 743.061 668.312 743.148ZM782.072 572.028L679.376 726.811L779.065 619.834L782.072 572.028Z" fill="white"/>
<path d="M781.419 621.773C781.102 621.953 780.734 622.03 780.36 621.988C779.55 621.889 778.98 621.209 779.024 620.41L782.439 566.163C782.451 565.984 782.5 565.808 782.569 565.637L833.009 447.695C833.346 446.903 834.248 446.488 835.065 446.724C835.879 446.969 836.319 447.805 836.064 448.617L782.208 620.805C782.079 621.224 781.783 621.566 781.419 621.773ZM785.671 566.458L783.109 607.211L823.565 477.856L785.671 566.458Z" fill="white"/>
<path d="M784.244 354.331C784.158 354.38 784.069 354.423 783.972 354.453C783.277 354.709 782.511 354.486 782.111 353.906L664.615 184.568C664.173 183.93 664.302 183.05 664.919 182.502C665.592 181.946 666.452 181.918 667.057 182.413L780.766 274.235C781.1 274.498 781.292 274.882 781.314 275.306L785.102 352.823C785.13 353.441 784.793 354.019 784.244 354.331ZM673.874 192.121L781.568 347.332L778.095 276.281L673.874 192.121Z" fill="white"/>
<path d="M835.276 449.585C835.223 449.615 835.17 449.645 835.114 449.669C834.327 450.009 833.431 449.728 833.055 449.02L782.023 353.767C781.92 353.57 781.86 353.357 781.851 353.14L778.063 275.624C778.027 274.821 778.632 274.098 779.41 273.928C780.222 273.754 781.007 274.18 781.25 274.931L836.069 447.701C836.291 448.414 835.951 449.201 835.276 449.585ZM785.086 352.486L827.549 431.75L781.934 287.987L785.086 352.486Z" fill="white"/>
<path d="M784.835 567.526C784.51 567.711 784.126 567.789 783.745 567.734C782.986 567.631 782.44 567.011 782.436 566.264L781.845 353.07C781.851 352.342 782.369 351.668 783.096 351.469C783.83 351.265 784.588 351.567 784.929 352.197L835.96 447.45C836.173 447.855 836.194 448.338 836.005 448.775L785.564 566.716C785.42 567.062 785.152 567.346 784.835 567.526ZM785.118 359.548L785.674 558.38L832.716 448.381L785.118 359.548Z" fill="white"/>
<path d="M175.96 661.46C175.795 661.555 175.615 661.624 175.425 661.658C174.626 661.808 173.864 661.377 173.631 660.644L118.839 487.86C118.676 487.343 118.811 486.764 119.189 486.335C119.556 485.904 120.145 485.692 120.702 485.763L177.25 493.243C178.026 493.345 178.585 493.974 178.573 494.738L176.817 660.043C176.811 660.631 176.47 661.171 175.96 661.46ZM122.73 489.236L173.671 649.878L175.304 496.194L122.73 489.236Z" fill="white"/>
<path d="M177.716 496.156C177.392 496.341 177.015 496.416 176.647 496.369L120.099 488.889C119.643 488.827 119.25 488.581 119.004 488.211C118.768 487.842 118.705 487.376 118.844 486.943L172.679 314.767C172.906 314.012 173.678 313.507 174.463 313.579C175.255 313.647 175.854 314.27 175.866 315.045L178.579 494.702C178.582 495.17 178.374 495.634 177.996 495.956C177.908 496.031 177.816 496.1 177.716 496.156ZM122.49 485.997L175.29 492.983L172.755 325.229L122.49 485.997Z" fill="white"/>
<path d="M479.183 814.077C478.806 814.291 478.364 814.361 477.954 814.257L319.819 776.954C319.055 776.78 318.574 776.089 318.664 775.322C318.759 774.552 319.401 773.956 320.191 773.852L481.748 756.905C482.21 756.856 482.662 757.003 482.993 757.309C483.321 757.608 483.488 758.04 483.464 758.49L480.042 812.74C480.009 813.22 479.756 813.669 479.348 813.967C479.292 814.007 479.242 814.043 479.183 814.077ZM329.728 776.011L476.913 810.733L480.098 760.239L329.728 776.011Z" fill="white"/>
<path d="M668.312 743.148C668.233 743.193 668.15 743.232 668.063 743.264L478.935 814.193C478.422 814.385 477.853 814.323 477.421 814.025C476.999 813.73 476.756 813.242 476.789 812.713L480.21 758.463C480.258 757.654 480.924 756.978 481.776 756.906L667.483 740.227C668.291 740.155 669.001 740.665 669.147 741.429C669.271 742.108 668.927 742.798 668.312 743.148ZM480.185 810.403L656.194 744.392L483.374 759.916L480.185 810.403Z" fill="white"/>
<path d="M666.747 184.993C666.535 185.114 666.298 185.191 666.04 185.214L480.344 201.911C479.452 201.99 478.698 201.357 478.657 200.499L474.869 122.983C474.847 122.452 475.095 121.933 475.542 121.596C476.004 121.284 476.572 121.158 477.077 121.324L666.561 182.143C667.281 182.376 667.71 183.07 667.584 183.818C667.5 184.318 667.183 184.745 666.747 184.993ZM481.83 198.629L658.039 182.783L478.236 125.069L481.83 198.629Z" fill="white"/>
<path d="M481.05 201.691C480.752 201.86 480.411 201.939 480.075 201.916L318.434 190.129C317.693 190.073 317.112 189.53 317.025 188.823C316.938 188.115 317.425 187.418 318.065 187.111L475.919 121.382C476.407 121.178 476.949 121.208 477.39 121.459C477.824 121.714 478.096 122.161 478.12 122.666L481.908 200.182C481.928 200.648 481.742 201.108 481.389 201.441C481.287 201.539 481.169 201.623 481.05 201.691ZM325.325 187.453L478.563 198.627L474.974 125.139L325.325 187.453Z" fill="white"/>
<path d="M295.211 665.488C294.939 665.642 294.619 665.725 294.3 665.718L175.051 661.69C174.203 661.662 173.556 661.001 173.569 660.178L175.325 494.874C175.332 494.178 175.835 493.538 176.497 493.318C177.19 493.089 177.922 493.314 178.315 493.881L295.808 663.213C296.145 663.697 296.156 664.349 295.835 664.877C295.685 665.136 295.462 665.345 295.211 665.488ZM176.838 658.582L291.259 662.449L178.518 499.965L176.838 658.582Z" fill="white"/>
<path d="M321.048 776.774C320.453 777.113 319.719 777.069 319.21 776.667L174.122 661.354C173.593 660.93 173.421 660.213 173.695 659.571C173.973 658.92 174.63 658.521 175.336 658.531L294.585 662.559C295.291 662.585 295.873 663.053 296.029 663.713L321.868 774.999C322.025 775.659 321.715 776.362 321.114 776.736L321.048 776.774ZM180.019 661.853L317.616 771.217L293.111 665.678L180.019 661.853Z" fill="white"/>
<path d="M482.604 759.827C482.399 759.943 482.169 760.016 481.925 760.048L320.368 776.996C319.574 777.077 318.861 776.593 318.692 775.85L292.853 664.564C292.712 663.961 292.959 663.318 293.475 662.918C294.01 662.564 294.699 662.452 295.252 662.731L482.647 757.069C483.271 757.381 483.586 758.074 483.424 758.759C483.306 759.213 483.008 759.597 482.604 759.827ZM321.572 773.709L476.256 757.485L296.829 667.152L321.572 773.709Z" fill="white"/>
<path d="M668.313 743.148C668.008 743.321 667.644 743.404 667.29 743.367C666.66 743.305 666.151 742.887 665.976 742.303L640.509 655.208C640.315 654.528 640.617 653.781 641.251 653.387L783.24 564.86C783.771 564.484 784.723 564.527 785.248 565.035C785.77 565.537 785.843 566.343 785.425 566.976L668.902 742.598C668.744 742.828 668.544 743.016 668.313 743.148ZM643.985 655.347L668.16 738.031L778.778 571.3L643.985 655.347Z" fill="white"/>
<path d="M668.312 743.148C668.101 743.268 667.858 743.349 667.606 743.368L481.899 760.046C481.165 760.11 480.498 759.691 480.28 759.016C480.063 758.341 480.354 757.591 480.984 757.175L641.224 653.402C641.681 653.142 642.206 653.05 642.671 653.205C643.146 653.363 643.512 653.731 643.647 654.198L669.113 741.292C669.244 741.753 669.151 742.251 668.856 742.657C668.718 742.859 668.524 743.027 668.312 743.148ZM487.982 756.348L665.425 740.41L641.093 657.19L487.982 756.348Z" fill="white"/>
<path d="M294.246 320.547C293.71 320.852 293.055 320.854 292.552 320.539C292.025 320.213 291.759 319.607 291.879 318.987L317.042 188.343C317.207 187.509 318.007 186.914 318.849 186.978L480.49 198.766C481.177 198.819 481.732 199.286 481.874 199.938C482.02 200.579 481.721 201.268 481.123 201.649L294.319 320.506L294.246 320.547ZM319.957 190.234L295.751 315.912L475.451 201.574L319.957 190.234Z" fill="white"/>
<path d="M177.716 496.157C177.345 496.368 176.907 496.444 176.491 496.343C175.804 496.182 175.334 495.601 175.317 494.911L172.604 315.254C172.599 314.813 172.788 314.376 173.128 314.051C173.465 313.719 173.924 313.557 174.378 313.57L293.621 317.618C294.193 317.638 294.696 317.953 294.945 318.437C295.191 318.931 295.15 319.522 294.835 319.998L178.305 495.607C178.147 495.837 177.947 496.025 177.716 496.157ZM175.891 316.785L178.501 489.626L290.609 320.681L175.891 316.785Z" fill="white"/>
<path d="M294.246 320.547C293.975 320.701 293.661 320.781 293.335 320.777L174.092 316.73C173.44 316.706 172.887 316.304 172.689 315.708C172.484 315.117 172.68 314.446 173.181 314.004L317.587 187.408C318.119 186.957 318.862 186.848 319.455 187.152C320.055 187.453 320.369 188.098 320.24 188.764L295.077 319.407C294.98 319.899 294.669 320.306 294.246 320.547ZM178.245 313.701L292.151 317.572L316.19 192.772L178.245 313.701Z" fill="white"/>
<path d="M784.243 354.331C783.787 354.591 783.234 354.634 782.751 354.431L640.324 293.457C639.654 293.172 639.294 292.462 639.462 291.741L664.392 183.377C664.539 182.758 665.042 182.258 665.693 182.11C666.338 181.966 666.99 182.204 667.344 182.719L784.841 352.057C785.237 352.63 785.182 353.411 784.694 353.968C784.56 354.118 784.409 354.237 784.243 354.331ZM642.921 291.05L778.883 349.263L666.717 187.604L642.921 291.05Z" fill="white"/>
<path d="M641.818 293.357C641.772 293.383 641.719 293.414 641.669 293.434C641.181 293.653 640.62 293.635 640.175 293.378L479.408 201.711C478.804 201.371 478.526 200.682 478.711 200.008C478.901 199.34 479.498 198.836 480.222 198.77L665.919 182.073C666.418 182.028 666.907 182.21 667.227 182.572C667.553 182.93 667.678 183.427 667.568 183.91L642.638 292.274C642.537 292.726 642.235 293.12 641.818 293.357ZM485.508 201.444L639.972 289.525L663.926 185.404L485.508 201.444Z" fill="white"/>
<path d="M784.834 567.526C784.801 567.545 784.768 567.564 784.731 567.577C784.151 567.865 783.463 567.795 782.989 567.407L669.279 475.569C668.945 475.306 668.749 474.915 668.727 474.491C668.712 474.064 668.875 473.642 669.171 473.317L782.29 351.96C782.763 351.468 783.46 351.278 784.078 351.486C784.695 351.695 785.098 352.248 785.106 352.894L785.697 566.088C785.697 566.673 785.363 567.225 784.834 567.526ZM672.693 474.121L782.433 562.75L781.858 357.005L672.693 474.121Z" fill="white"/>
<path d="M642.845 656.053C642.316 656.354 641.671 656.359 641.165 656.054C640.645 655.74 640.373 655.154 640.467 654.549L668.747 474.184C668.841 473.612 669.237 473.123 669.802 472.884C670.367 472.662 670.991 472.743 671.435 473.108L785.145 564.946C785.54 565.256 785.735 565.738 785.689 566.242C785.636 566.749 785.347 567.21 784.894 567.492L642.905 656.019L642.845 656.053ZM671.516 477.376L644.206 651.55L781.314 566.062L671.516 477.376Z" fill="white"/>
<path d="M671.126 475.688C670.749 475.903 670.297 475.97 669.871 475.867C669.278 475.718 668.845 475.248 668.747 474.662L639.439 292.331C639.349 291.756 639.598 291.162 640.091 290.783C640.576 290.449 641.231 290.324 641.775 290.558L784.202 351.532C784.664 351.73 784.992 352.136 785.076 352.623C785.171 353.113 785.014 353.622 784.662 354.003L671.543 475.36C671.416 475.49 671.278 475.602 671.126 475.688ZM643.135 294.658L671.456 470.865L780.781 353.584L643.135 294.658Z" fill="white"/>
<path d="M295.21 665.488C295.078 665.563 294.928 665.623 294.775 665.661C294.118 665.829 293.439 665.59 293.077 665.063L175.584 495.731C175.251 495.253 175.233 494.621 175.538 494.094C175.838 493.561 176.41 493.227 177.032 493.228L323.331 492.648C323.801 492.644 324.234 492.834 324.519 493.166C324.814 493.5 324.938 493.949 324.86 494.396L296.047 664.312C295.964 664.812 295.647 665.24 295.21 665.488ZM180.046 496.371L293.523 659.919L321.354 495.806L180.046 496.371Z" fill="white"/>
<path d="M324.023 495.572C323.765 495.719 323.478 495.8 323.172 495.801L176.873 496.381C176.289 496.384 175.759 496.084 175.496 495.592C175.234 495.099 175.273 494.492 175.592 494.006L292.122 318.396C292.506 317.84 293.17 317.545 293.822 317.644C294.473 317.742 294.978 318.229 295.083 318.861L324.859 493.887C324.939 494.351 324.795 494.837 324.473 495.209C324.339 495.359 324.188 495.478 324.023 495.572ZM179.889 493.217L321.321 492.655L292.542 323.459L179.889 493.217Z" fill="white"/>
<path d="M642.845 656.053C642.402 656.305 641.869 656.353 641.407 656.172L482.909 594.648C482.358 594.434 481.988 593.937 481.954 593.355C481.921 592.773 482.221 592.207 482.739 591.871L669.517 473.03C669.913 472.772 670.74 472.672 671.26 472.985C671.786 473.295 672.062 473.888 671.968 474.492L643.688 654.857C643.608 655.348 643.295 655.797 642.845 656.053ZM487.068 592.801L640.794 652.478L668.22 477.538L487.068 592.801Z" fill="white"/>
<path d="M482.605 759.826C482.115 760.105 481.524 760.128 481.037 759.887C480.515 759.632 480.205 759.117 480.212 758.544L481.954 593.248C481.956 592.712 482.237 592.206 482.709 591.896C483.118 591.507 483.754 591.516 484.25 591.712L642.748 653.235C643.299 653.449 643.665 653.94 643.699 654.522C643.739 655.101 643.442 655.673 642.931 656.005L482.691 759.778L482.605 759.826ZM485.179 595.53L483.491 755.551L638.619 655.089L485.179 595.53Z" fill="white"/>
<path d="M482.604 759.826C482.108 760.109 481.517 760.132 481.026 759.884L293.63 665.546C293.078 665.267 292.755 664.685 292.822 664.063C292.885 663.451 293.323 662.897 293.922 662.672L483.059 591.713C483.558 591.528 484.111 591.576 484.532 591.855C484.964 592.137 485.212 592.605 485.203 593.112L483.461 758.409C483.457 758.971 483.146 759.502 482.644 759.804L482.604 759.826ZM298.395 664.318L480.239 755.853L481.926 595.462L298.395 664.318Z" fill="white"/>
<path d="M484.348 594.53C484.268 594.575 484.185 594.614 484.099 594.647L294.961 665.605C294.419 665.806 293.822 665.726 293.385 665.39C292.949 665.053 292.745 664.511 292.837 663.964L321.65 494.049C321.739 493.512 322.104 493 322.616 492.808C323.13 492.573 323.723 492.598 324.181 492.881L484.506 591.838C485.009 592.153 485.281 592.723 485.19 593.318C485.117 593.82 484.798 594.274 484.348 594.53ZM296.49 661.705L479.982 592.872L324.442 496.865L296.49 661.705Z" fill="white"/>
<path d="M484.348 594.529C483.808 594.828 483.153 594.83 482.654 594.521L322.328 495.564C321.887 495.296 321.625 494.82 321.627 494.3C321.629 493.78 321.89 493.286 322.332 492.969L482.066 378.731C482.567 378.397 483.217 378.307 483.748 378.549C484.283 378.796 484.613 379.316 484.62 379.897L485.211 593.091C485.211 593.676 484.877 594.228 484.348 594.529ZM326.124 494.08L481.944 590.257L481.372 383.053L326.124 494.08Z" fill="white"/>
<path d="M484.347 594.53C483.857 594.808 483.266 594.831 482.782 594.596C482.271 594.344 481.954 593.832 481.948 593.268L481.357 380.073C481.361 379.511 481.668 378.974 482.167 378.666C482.765 378.408 483.293 378.321 483.798 378.578L671.167 472.931C671.668 473.181 671.978 473.68 671.981 474.238C671.99 474.793 671.692 475.332 671.197 475.647L484.419 594.488L484.347 594.53ZM484.619 382.622L485.195 590.31L667.153 474.539L484.619 382.622Z" fill="white"/>
<path d="M671.125 475.688C670.635 475.967 670.038 475.994 669.547 475.746L482.178 381.393C481.663 381.134 481.349 380.613 481.363 380.037C481.373 379.455 481.872 379.023 482.233 378.628L640.295 290.65C640.761 290.393 641.311 290.36 641.784 290.56C642.254 290.771 642.579 291.187 642.66 291.684L671.968 474.015C672.062 474.612 671.794 475.217 671.28 475.592C671.227 475.622 671.178 475.658 671.125 475.688ZM486.376 379.878L668.235 471.454L639.789 294.486L486.376 379.878Z" fill="white"/>
<path d="M641.817 293.357L641.804 293.365L483.743 381.343C483.243 381.618 482.638 381.633 482.154 381.382C481.666 381.124 481.37 380.634 481.357 380.089L478.652 200.445C478.645 199.864 478.969 199.309 479.488 199.006L479.514 198.991C480.037 198.693 480.665 198.69 481.157 198.97L641.924 290.637C642.416 290.917 642.7 291.431 642.679 291.994C642.648 292.555 642.326 293.068 641.817 293.357ZM484.576 377.328L637.813 292.029L481.952 203.17L484.576 377.328Z" fill="white"/>
<path d="M483.755 381.335C483.339 381.572 482.846 381.63 482.405 381.486L292.895 320.698C292.315 320.509 291.911 320.014 291.854 319.421C291.803 318.824 292.106 318.232 292.637 317.889L479.441 199.032C479.849 198.841 480.561 198.676 481.068 198.922C481.58 199.175 481.896 199.67 481.912 200.237L484.618 379.881C484.626 380.404 484.362 380.908 483.92 381.225C483.864 381.265 483.808 381.305 483.755 381.335ZM297.164 318.69L481.321 377.763L478.699 203.192L297.164 318.69Z" fill="white"/>
<path d="M324.022 495.572C323.592 495.817 323.069 495.867 322.617 495.704C322.101 495.52 321.739 495.084 321.65 494.558L291.875 319.533C291.778 318.978 291.997 318.409 292.454 318.026C292.873 317.656 293.515 317.521 294.061 317.697L483.571 378.485C484.137 378.665 484.531 379.141 484.604 379.717C484.678 380.292 484.409 380.882 483.912 381.239L324.177 495.476C324.128 495.512 324.075 495.542 324.022 495.572ZM295.542 321.547L324.45 491.46L479.516 380.56L295.542 321.547Z" fill="white"/>
</svg>
