<svg width="150" height="56" viewBox="0 0 150 56" fill="none" xmlns="http://www.w3.org/2000/svg">
<path fill-rule="evenodd" clip-rule="evenodd" d="M53.7712 17.0678V33.5932H57.839H61.9068V27.2373C61.9068 23.0424 61.9068 20.7542 61.9068 20.5C62.0339 19.8644 62.161 19.2288 62.5424 18.7203C63.0508 17.8305 63.9407 17.4491 64.9576 17.5763C66.3559 17.7034 67.2458 18.4661 67.5 20.1186C67.5 20.3729 67.5 22.9152 67.5 26.983V33.4661H71.5678H75.6356V25.839C75.6356 19.3559 75.6356 18.0847 75.5085 17.4491C75.2542 15.161 74.4915 13.3813 73.0932 12.1102C71.9492 10.9661 70.5508 10.3305 68.8983 10.0763C68.2627 9.94914 66.4831 10.0763 65.9746 10.2034C64.4492 10.5847 63.3051 11.0932 62.2881 12.2373L61.6525 12.7457V6.64405V0.542358H57.5848H53.5169V17.0678H53.7712ZM140.212 0.796597C139.958 1.30507 131.695 21.2627 131.695 21.2627C131.695 21.2627 133.856 21.2627 136.525 21.2627H141.356L145.678 10.9661C148.093 5.24575 150 0.542358 150 0.542358C150 0.542358 147.839 0.542358 145.169 0.542358H140.339L140.212 0.796597ZM35.9746 10.2034C34.1949 10.4576 32.7966 10.9661 31.3983 11.8559C28.6017 13.6356 26.822 16.6864 26.3136 20.2457C26.0593 21.8983 26.1864 23.9322 26.5678 25.4576C27.5847 29.3983 30.2542 32.4491 33.6864 33.5932C34.9576 33.9746 35.4661 34.1017 36.9915 34.1017C38.1356 34.1017 38.5169 34.1017 38.8983 33.9746C40.5508 33.5932 41.6949 32.9576 42.7119 31.9407L43.2203 31.4322V32.4491V33.4661H47.161H51.1017V22.0254V10.5847H47.161H43.2203V11.6017V12.6186L42.839 12.2373C41.9492 11.2203 40.678 10.5847 39.0254 10.2034C38.517 10.0763 38.2627 10.0763 37.2458 10.0763C36.6102 10.2034 36.1017 10.2034 35.9746 10.2034ZM87.839 10.2034C85.678 10.4576 83.3898 11.4746 81.7373 12.7457C78.5593 15.4152 76.9068 19.6102 77.5424 23.9322C78.178 28.7627 81.6102 32.4491 86.4407 33.7203C87.4576 33.9746 88.4746 34.1017 89.7458 34.1017C92.0339 34.1017 93.6864 33.7203 95.4661 32.8305C99.0254 31.0508 101.314 27.8729 101.822 23.9322C101.949 22.9152 101.949 21.2627 101.822 20.3729C101.568 18.4661 100.805 16.5593 99.661 15.0339C99.1525 14.3983 98.1356 13.2542 97.5 12.7457C95.7203 11.3474 93.6864 10.4576 91.3983 10.2034C90.5085 10.0763 88.7288 10.0763 87.839 10.2034ZM113.771 10.2034C111.61 10.4576 109.449 11.3474 107.797 12.7457C107.161 13.2542 106.017 14.3983 105.636 15.0339C104.492 16.5593 103.856 18.4661 103.475 20.3729C103.347 21.2627 103.347 23.0424 103.475 23.9322C104.237 29.0169 107.924 32.9576 113.008 33.9746C114.025 34.2288 114.534 34.2288 115.678 34.2288C117.839 34.2288 119.746 33.8474 121.525 32.8305C126.229 30.4152 128.771 25.0763 127.627 19.6102C126.61 14.5254 122.542 10.839 117.331 10.2034C116.441 10.0763 114.661 10.0763 113.771 10.2034ZM0 10.7118C0 10.7118 2.16102 15.9237 4.83051 22.2796C7.5 28.6356 9.66102 33.8474 9.66102 33.8474C9.66102 33.8474 8.89831 35.7542 7.88136 38.0424C6.86441 40.3305 6.10169 42.1102 6.10169 42.2373C6.10169 42.3644 8.00848 42.2373 10.4237 42.2373H14.7458L21.2288 26.6017C24.7881 17.9576 27.7119 10.9661 27.7119 10.839C27.7119 10.839 26.822 10.7118 23.3898 10.839H19.0678L16.3983 17.4491C15.2542 21.0085 14.1102 24.0593 14.1102 24.0593C14.1102 24.0593 12.9661 21.0085 11.4407 17.4491L8.8983 10.839H4.44915C2.0339 10.7118 0 10.7118 0 10.7118ZM39.9153 17.5763C41.5678 17.9576 42.839 19.2288 43.3475 20.8813C43.4746 21.5169 43.4746 22.661 43.3475 23.2966C42.9661 24.9491 41.6949 26.2203 40.0424 26.6017C39.4068 26.7288 38.2627 26.7288 37.6271 26.6017C36.2288 26.2203 34.9576 25.2034 34.4492 23.9322C33.8136 22.5339 34.0678 20.7542 34.8305 19.483C35.9746 17.8305 37.8814 17.1949 39.9153 17.5763ZM90.6356 17.7034C92.4153 17.9576 93.8136 19.3559 94.1949 21.1356C94.322 21.7712 94.322 22.7881 94.1949 23.4237C93.8136 25.0763 92.5424 26.2203 91.017 26.7288C90.5085 26.8559 89.1102 26.8559 88.6017 26.7288C87.3305 26.3474 86.3136 25.4576 85.678 24.3135C85.2966 23.5508 85.2966 23.1695 85.2966 22.2796C85.2966 21.5169 85.4237 21.1356 85.678 20.5C86.0593 19.7373 86.5678 18.9746 87.3305 18.4661C88.0932 17.7034 89.3644 17.4491 90.6356 17.7034ZM116.441 17.7034C117.966 17.9576 119.237 18.9746 119.746 20.3729C120 21.0085 120.127 21.3898 120.127 22.1525C120.127 23.0424 120 23.4237 119.746 24.1864C119.237 25.3305 118.093 26.2203 116.822 26.6017C116.314 26.7288 114.915 26.7288 114.407 26.6017C112.881 26.2203 111.61 24.9491 111.229 23.2966C111.102 22.661 111.102 21.5169 111.229 20.8813C111.737 18.8474 113.517 17.4491 115.551 17.4491C115.805 17.5763 116.186 17.5763 116.441 17.7034ZM133.729 23.2966C131.314 23.5508 129.534 25.3305 129.025 27.6186C128.898 28.2542 128.898 29.3983 129.025 30.0339C129.534 32.0678 131.059 33.4661 133.093 33.9746C133.347 33.9746 133.856 34.1017 134.237 34.1017C135.763 34.1017 137.034 33.5932 138.051 32.5763C139.195 31.4322 139.576 30.2881 139.576 28.7627C139.576 26.8559 138.686 25.2034 137.161 24.3135C136.144 23.4237 134.746 23.1695 133.729 23.2966ZM66.7373 35.7542C65.0847 36.2627 64.322 38.1695 65.2119 39.5678C65.4661 39.9491 65.9746 40.4576 66.3559 40.5847C66.7373 40.7118 66.7373 40.7118 67.5 40.7118C68.1356 40.7118 68.2627 40.7118 68.6441 40.5847C69.1525 40.3305 69.661 39.822 69.9153 39.3135C70.5508 38.0424 69.9153 36.5169 68.6441 35.8813C68.2627 35.6271 68.1356 35.6271 67.6271 35.6271C67.1186 35.6271 66.9915 35.6271 66.7373 35.7542ZM59.8729 35.8813C57.7119 36.2627 56.3136 37.661 55.678 39.9491C55.5508 40.3305 55.5508 40.7118 55.5508 41.2203V42.1101H54.661H53.7712V44.0169V45.9237H54.661H55.5508V50.5V55.0763H57.9661H60.3814V50.5V45.9237H62.0339H63.6864V44.0169V42.1101H62.0339H60.3814V41.7288C60.5085 40.839 60.8898 40.2034 61.6525 40.0763C62.161 39.9491 62.9237 39.9491 63.4322 40.2034C63.6864 40.3305 63.8136 40.3305 63.8136 40.3305C63.8136 40.3305 63.8136 39.4407 63.8136 38.2966V36.2627L63.4322 36.1356C62.9237 35.8813 62.2881 35.8813 61.3983 35.8813C60.7627 35.7542 60.2542 35.8813 59.8729 35.8813ZM79.1949 41.8559C78.178 42.1102 77.4153 42.6186 76.9068 43.2542L76.6525 43.6356V42.8729V42.1101H74.2373H71.822V48.5932V55.0763H74.2373H76.6525V51.5169C76.6525 49.483 76.6525 47.8305 76.6525 47.5763C76.7797 47.0678 77.0339 46.5593 77.2881 46.3051C77.9237 45.7966 79.0678 45.9237 79.5763 46.5593C79.9576 47.0678 79.9576 47.0678 79.9576 51.1356V54.9491H82.3729H84.7881V50.6271C84.7881 46.0508 84.7881 45.5424 84.5339 44.6525C84.2797 43.8898 84.0254 43.2542 83.3898 42.7457C82.8814 42.2373 82.3729 41.8559 81.6102 41.7288C80.9746 41.7288 79.7034 41.7288 79.1949 41.8559ZM91.2712 41.7288C90.5085 41.8559 89.3644 42.2373 88.7288 42.7457C87.3305 43.7627 86.4407 45.2881 86.0593 47.1949C85.9322 47.9576 85.9322 49.3559 86.0593 50.1186C86.3136 51.2627 86.6949 52.4068 87.3305 53.1695C88.2203 54.3135 89.3644 55.0763 90.7627 55.3305C91.5254 55.4576 92.7966 55.4576 93.4322 55.2034C94.1949 54.9491 94.7034 54.6949 95.339 54.1864L95.8475 53.678V54.3135V54.9491H98.2627H100.678V48.4661V41.983H98.2627H95.8475V42.6186V43.2542L95.4661 43.1271C94.8305 42.4915 93.9407 41.983 92.9237 41.8559C92.5424 41.7288 91.6525 41.7288 91.2712 41.7288ZM109.703 41.8559C108.814 41.983 107.924 42.6186 107.415 43.2542L107.161 43.5085V42.7457V41.983H104.746H102.331V48.4661V54.9491H104.746H107.161V51.2627C107.161 47.322 107.161 47.322 107.415 46.6864C107.669 46.178 108.178 45.9237 108.686 45.9237C109.195 45.9237 109.449 46.0508 109.831 46.3051C110.339 46.8135 110.339 46.6864 110.339 51.0085V54.822H112.754H115.169V50.1186C115.169 45.4152 115.169 45.4152 115.042 44.9068C114.915 44.6525 114.788 44.1441 114.661 43.7627C114.407 43.2542 114.28 43.1271 113.898 42.7457C113.39 42.2373 113.008 41.983 112.5 41.7288C111.61 41.7288 110.593 41.6017 109.703 41.8559ZM122.288 41.8559C120.127 42.2373 118.475 43.2542 117.458 45.0339C117.203 45.5424 116.949 46.178 116.695 46.8135C116.568 47.4491 116.568 47.5763 116.568 48.5932C116.568 49.7373 116.568 50.1186 116.949 51.0085C117.712 53.1695 119.492 54.822 121.907 55.3305C122.288 55.4576 122.669 55.4576 123.559 55.4576C124.831 55.4576 125.339 55.3305 126.229 54.9491L126.737 54.6949V52.5339V50.3729L126.356 50.6271C125.72 51.0085 125.339 51.1356 124.576 51.1356C123.814 51.1356 123.432 51.1356 122.924 50.8813C122.415 50.6271 122.034 50.2457 121.78 49.7373C121.653 49.3559 121.653 49.3559 121.653 48.7203C121.653 48.2118 121.653 48.0847 121.78 47.7034C122.161 46.6864 123.051 46.178 124.322 46.0508C125.212 46.0508 125.593 46.0508 126.864 46.6864C126.864 46.6864 126.864 45.6695 126.864 44.5254V42.3644L126.483 42.2373C125.085 41.7288 123.559 41.6017 122.288 41.8559ZM133.22 41.8559C129.534 42.4915 127.246 45.6695 127.5 49.3559C127.627 50.6271 128.008 51.7712 128.644 52.661C129.534 54.0593 130.932 54.9491 132.712 55.3305C133.475 55.4576 135.508 55.4576 136.398 55.3305C137.669 55.0763 138.814 54.4407 139.703 53.5508C140.085 53.1695 140.72 52.2796 140.72 52.2796C140.72 52.2796 139.831 51.8983 138.686 51.5169L136.653 50.7542L136.398 51.0085C136.017 51.3898 135.763 51.5169 135.254 51.644C133.856 52.0254 132.458 51.2627 132.203 49.9915V49.7373H136.653H141.102V48.5932C141.102 47.8305 141.102 47.322 140.975 47.0678C140.72 45.5424 140.085 44.5254 139.195 43.5085C138.305 42.6186 137.288 42.1102 135.89 41.8559C135.381 41.7288 133.856 41.7288 133.22 41.8559ZM65.0847 48.5932V55.0763H67.5H69.9153V48.5932V42.1101H67.5H65.0847V48.5932ZM135.127 45.4152C135.508 45.5424 135.636 45.6695 136.017 45.9237C136.271 46.1779 136.525 46.4322 136.525 46.8135V47.0678H134.364C131.949 47.0678 132.076 47.0678 132.331 46.5593C132.712 45.6695 133.856 45.161 135.127 45.4152ZM94.0678 46.0508C94.7034 46.178 95.4661 46.8135 95.7203 47.4491C96.3559 48.8474 95.7203 50.5 94.1949 51.0085C93.6864 51.1356 92.9237 51.1356 92.4153 51.0085C91.6525 50.7542 90.8898 50.1186 90.7627 49.3559C90.6356 48.9746 90.6356 48.8474 90.6356 48.4661C90.6356 47.9576 90.6356 47.8305 90.8898 47.4491C91.3983 46.3051 92.6695 45.7966 94.0678 46.0508Z" fill="white"/>
</svg>
