<svg width="300" height="52" viewBox="0 0 300 52" fill="none" xmlns="http://www.w3.org/2000/svg">
<path fill-rule="evenodd" clip-rule="evenodd" d="M44.1334 31.003C43.24 31.539 42.168 31.7177 41.4532 31.1817C40.3812 30.6456 39.8451 29.2162 39.8451 27.4294V21.7117C39.8451 19.0316 38.7731 17.0661 36.9863 16.5301C33.9488 15.6367 31.626 19.3889 30.7326 20.8183L25.3722 29.5735V18.8529C25.3722 16.3514 24.4789 14.922 23.0494 14.5646C21.9774 14.2073 20.5479 14.3859 19.1185 16.5301L7.14711 35.8273C5.53901 32.7897 4.64562 29.3949 4.64562 25.8213C4.64562 14.2073 13.9369 4.73733 25.3722 4.73733C36.8076 4.73733 46.0989 14.3859 46.0989 26C46.2775 28.3228 45.5628 30.1096 44.1334 31.003ZM50.7445 26C50.7445 11.7058 39.3091 0.270386 25.3722 0.270386C11.4354 0.270386 0 11.8844 0 26C0 40.1155 11.4354 51.7296 25.3722 51.7296C31.8046 51.7296 37.8797 49.2281 42.704 44.7612C43.5974 43.8678 43.7761 42.4383 42.8827 41.3663C41.9893 40.4729 40.5599 40.2942 39.6665 41.1876C35.9142 44.7612 30.7326 46.9053 25.5509 46.9053C19.4759 46.9053 13.9369 44.2251 10.006 39.9369L20.9053 22.4264V30.4669C20.9053 34.3978 22.3347 35.6486 23.5855 36.0059C24.8362 36.3633 26.8017 36.1846 28.7671 32.7898L34.6635 23.1411C34.8422 22.7838 35.0208 22.6051 35.1995 22.2478V27.0721C35.1995 30.6456 36.6289 33.5045 39.1304 34.9339C41.4532 36.1846 44.3121 36.1846 46.6349 34.5765C49.4938 33.3258 50.9232 29.9309 50.7445 26ZM86.1227 17.2448C86.6587 17.6021 87.1948 18.4955 87.1948 19.2102C87.1948 20.461 86.1227 21.3544 85.0506 21.3544C84.6933 21.3544 84.5146 21.3544 84.1572 21.1757C82.7278 20.1036 81.1197 19.5676 79.3329 19.5676C75.0447 19.5676 72.1858 22.9625 72.1858 27.2507C72.1858 31.539 75.0447 34.9339 79.3329 34.9339C81.4771 34.9339 83.2638 34.0405 84.6933 32.7898C85.0506 32.6111 85.5867 32.4324 85.944 32.4324C87.0161 32.4324 87.9095 33.3258 87.9095 34.5765C87.9095 35.2912 87.3734 36.006 86.8374 36.3633C84.872 38.1501 82.0131 39.2222 79.1543 39.2222C72.7219 39.2222 67.3615 33.8618 67.3615 27.2507C67.3615 20.6397 72.7219 15.2793 79.1543 15.2793C82.0131 15.1006 84.3359 15.8154 86.1227 17.2448ZM98.0941 22.2478C102.561 22.2478 106.313 26 106.313 30.6456C106.313 35.2912 102.561 39.2222 98.0941 39.2222C93.4485 39.2222 89.5176 35.2912 89.5176 30.6456C89.5176 26 93.4485 22.2478 98.0941 22.2478ZM98.0941 34.9339C100.06 34.9339 101.668 33.1471 101.668 30.6456C101.668 28.1441 100.06 26.536 98.0941 26.536C95.95 26.536 94.1632 28.1441 94.1632 30.6456C94.1632 33.1471 95.95 34.9339 98.0941 34.9339ZM108.993 36.542V24.7493C108.993 23.4985 110.066 22.4264 111.316 22.4264C112.567 22.4264 113.639 23.4985 113.639 24.7493V36.542C113.639 37.7927 112.567 38.8648 111.316 38.8648C110.066 38.8648 108.993 37.7927 108.993 36.542ZM108.636 17.9595C108.636 16.3514 109.887 15.2793 111.316 15.2793C112.746 15.2793 113.996 16.5301 113.996 17.9595C113.996 19.3889 112.746 20.6397 111.316 20.6397C109.887 20.6397 108.636 19.3889 108.636 17.9595ZM122.394 30.1096V36.542C122.394 37.7927 121.322 38.8648 120.071 38.8648C118.821 38.8648 117.749 37.7927 117.749 36.542V24.2132C117.749 23.1411 118.642 22.4264 119.535 22.4264C120.429 22.4264 121.322 23.3198 121.322 24.2132C123.109 22.4264 124.896 22.2478 126.325 22.2478C130.971 22.2478 132.936 25.6426 132.936 29.5735V36.542C132.936 37.7927 131.864 38.8648 130.613 38.8648C129.363 38.8648 128.291 37.7927 128.291 36.542V30.1096C128.291 28.1441 128.112 26.3573 125.074 26.3573C123.288 26.3573 122.394 28.1441 122.394 30.1096ZM148.124 32.6111C147.588 32.6111 147.23 32.4324 146.873 32.075L141.513 26.1787V36.542C141.513 37.7927 140.441 38.8648 139.19 38.8648C137.939 38.8648 136.867 37.7927 136.867 36.542V15.994C137.046 15.6367 137.403 15.458 137.761 15.458C138.118 15.458 138.475 15.8154 138.654 15.994L147.23 25.6426C147.409 26 147.767 26.1787 147.945 26.1787C148.124 26.1787 148.481 26 148.66 25.6426L157.236 15.994C157.415 15.8154 157.772 15.458 158.13 15.458C158.487 15.458 158.845 15.6367 159.023 15.994V36.542C159.023 37.7927 157.951 38.8648 156.7 38.8648C155.45 38.8648 154.378 37.7927 154.378 36.542V26.1787L149.017 32.075C148.839 32.2537 148.481 32.6111 148.124 32.6111ZM170.101 34.9339C172.245 34.9339 173.853 33.1471 173.853 30.6456C173.853 28.1441 172.067 26.536 170.101 26.536C168.136 26.536 166.528 28.1441 166.528 30.6456C166.528 32.9684 168.136 34.9339 170.101 34.9339ZM175.104 37.078V36.542C174.211 38.3288 171.352 39.0435 169.565 39.0435C165.277 39.0435 162.061 35.1126 162.061 30.4669C162.061 25.8213 165.277 22.0691 169.744 22.0691C170.459 22.0691 173.139 22.2478 175.104 24.5706V24.0345C175.104 22.9625 175.819 22.2478 176.891 22.2478C177.784 22.2478 178.678 23.1411 178.678 24.0345V36.8993C178.678 37.9714 177.784 38.6861 176.891 38.6861C175.819 38.8648 175.104 38.1501 175.104 37.078ZM191.364 26.3573H190.828C187.969 26.536 187.433 28.1441 187.433 30.1096V36.542C187.433 37.7927 186.361 38.8648 185.11 38.8648C183.859 38.8648 182.787 37.7927 182.787 36.542V24.2132C182.787 23.1411 183.681 22.4264 184.574 22.4264C185.468 22.4264 186.361 23.3198 186.361 24.2132C188.148 22.6051 189.398 22.2478 190.828 22.2478H191.364C192.436 22.2478 193.508 23.1411 193.508 24.3919C193.329 25.464 192.436 26.3573 191.364 26.3573ZM209.053 35.4699C209.232 35.8273 209.41 36.1846 209.41 36.542C209.41 37.7927 208.338 38.8648 207.088 38.8648C206.194 38.8648 205.658 38.3288 205.122 37.614L199.762 31.539V36.542C199.762 37.7927 198.69 38.8648 197.439 38.8648C196.188 38.8648 195.116 37.7927 195.116 36.542V17.7808C195.116 16.5301 196.188 15.458 197.439 15.458C198.69 15.458 199.762 16.5301 199.762 17.7808V29.5735L205.122 23.6772C205.658 23.1411 206.373 22.4264 207.088 22.4264C208.16 22.4264 209.232 23.4985 209.232 24.7493C209.232 25.1066 209.232 25.464 208.874 25.8213L204.765 30.4669L209.053 35.4699ZM217.987 26.536C216.736 26.536 214.771 27.2507 214.771 29.2162H221.382C221.382 27.0721 219.238 26.536 217.987 26.536ZM224.062 32.075H214.771C214.771 34.7552 217.451 35.2912 218.523 35.2912C219.416 35.2912 220.667 35.1126 221.56 34.7552C221.918 34.5765 222.275 34.3978 222.811 34.3978C223.883 34.3978 224.598 35.2912 224.598 36.3633C224.598 37.078 224.062 37.614 223.526 37.9714C222.096 39.0435 220.31 39.2222 218.523 39.2222C213.877 39.2222 209.946 36.7207 209.946 30.8243C209.946 26.1787 212.269 22.2478 217.808 22.2478C222.275 22.2478 225.67 25.1066 225.67 30.2883C225.849 31.1817 225.134 32.075 224.062 32.075ZM236.927 39.0435H235.676C232.102 39.0435 230.137 37.4354 230.137 32.075V26.3573H228.886C227.814 26.3573 226.742 25.2853 226.742 24.2132C226.742 22.9625 227.635 22.0691 228.886 22.0691H230.137V17.7808C230.137 16.5301 231.209 15.458 232.46 15.458C233.711 15.458 234.783 16.5301 234.783 17.7808V22.0691H236.748C237.82 22.0691 238.892 22.9625 238.892 24.2132C238.892 25.2853 237.999 26.3573 236.748 26.3573H234.783V31.1817C234.783 34.3979 234.961 34.9339 236.391 34.9339H237.105C238.177 34.9339 239.071 35.8273 239.071 37.078C238.892 38.1501 237.999 39.0435 236.927 39.0435ZM259.083 17.2448C259.619 17.6021 260.155 18.4955 260.155 19.2102C260.155 20.461 259.083 21.3544 258.011 21.3544C257.653 21.3544 257.475 21.3544 257.117 21.1757C255.688 20.1036 254.08 19.5676 252.293 19.5676C248.005 19.5676 245.146 22.9625 245.146 27.2507C245.146 31.539 248.005 34.9339 252.293 34.9339C254.437 34.9339 256.224 34.0405 257.653 32.7898C258.011 32.6111 258.547 32.4324 258.904 32.4324C259.976 32.4324 260.87 33.3258 260.87 34.5765C260.87 35.2912 260.334 36.006 259.797 36.3633C257.832 38.1501 254.973 39.2222 252.114 39.2222C245.682 39.2222 240.322 33.8618 240.322 27.2507C240.322 20.6397 245.682 15.2793 252.114 15.2793C254.973 15.1006 257.296 15.8154 259.083 17.2448ZM270.876 34.9339C273.02 34.9339 274.628 33.1471 274.628 30.6456C274.628 28.1441 272.841 26.536 270.876 26.536C268.91 26.536 267.302 28.1441 267.302 30.6456C267.123 32.9684 268.731 34.9339 270.876 34.9339ZM275.7 37.078V36.542C274.806 38.3288 271.948 39.0435 270.161 39.0435C265.873 39.0435 262.656 35.1126 262.656 30.4669C262.656 25.8213 265.873 22.0691 270.339 22.0691C271.054 22.0691 273.734 22.2478 275.7 24.5706V24.0345C275.7 22.9625 276.415 22.2478 277.487 22.2478C278.38 22.2478 279.273 23.1411 279.273 24.0345V36.8993C279.273 37.9714 278.38 38.6861 277.487 38.6861C276.415 38.8648 275.7 38.1501 275.7 37.078ZM291.959 34.9339C293.925 34.9339 295.533 32.9684 295.533 30.6456C295.533 28.1441 293.925 26.536 291.959 26.536C289.994 26.536 288.207 28.1441 288.207 30.6456C288.029 33.1471 289.815 34.9339 291.959 34.9339ZM288.029 37.7927V43.6891C288.029 44.9398 286.957 46.0119 285.706 46.0119C284.455 46.0119 283.383 44.9398 283.383 43.6891V24.2132C283.383 23.1411 284.276 22.4264 285.17 22.4264C286.063 22.4264 286.957 23.3198 286.957 24.3919C288.743 22.6051 290.709 22.2478 292.317 22.2478C296.784 22.2478 300 26 300 30.6456C300 35.2912 296.784 39.2222 292.496 39.2222C291.245 39.0435 289.279 38.6861 288.029 37.7927Z" fill="white"/>
</svg>
