<svg width="220" height="52" viewBox="0 0 220 52" fill="none" xmlns="http://www.w3.org/2000/svg">
<path d="M38.587 26.0001L25.7246 38.8625H51.4494L38.587 26.0001Z" fill="#B9B9B9"/>
<path d="M12.8624 26.0002L0 13.1378V38.8626L12.8624 26.0002Z" fill="#E7E7E7"/>
<path d="M38.587 26.0002L51.4494 13.1378H25.7246L38.587 26.0002Z" fill="#B9B9B9"/>
<path d="M25.7245 13.1376L38.5869 0.275208H12.8621L25.7245 13.1376Z" fill="#CCCCCC"/>
<path d="M38.587 51.7247L51.4494 38.8623H25.7246L38.587 51.7247Z" fill="#C3C3C3"/>
<path d="M12.8624 51.7247L25.7248 38.8623H0L12.8624 51.7247Z" fill="#D3D3D3"/>
<path d="M38.587 0.275208L25.7246 13.1376H51.4494L38.587 0.275208Z" fill="#C3C3C3"/>
<path d="M0 13.1376H25.7248L12.8624 0.275208L0 13.1376Z" fill="#D3D3D3"/>
<path d="M25.7245 38.8623L12.8621 51.7247H38.5869L25.7245 38.8623Z" fill="#CCCCCC"/>
<path d="M12.8624 26.0001L0 38.8625H25.7248L12.8624 26.0001Z" fill="#DDDDDD"/>
<path d="M25.7248 13.1378H0L12.8624 26.0002L25.7248 13.1378Z" fill="#DDDDDD"/>
<path fill-rule="evenodd" clip-rule="evenodd" d="M66.3878 30.7298C67.0684 30.7298 67.5788 30.5257 67.919 30.1514C68.2593 29.7771 68.4295 29.2326 68.4295 28.484H73.1252L73.1593 28.5861C73.2614 30.2534 72.5468 31.8868 71.2878 32.9756C69.9267 34.1326 68.1913 34.7451 66.3878 34.677C63.8698 34.677 61.9642 33.8944 60.6031 32.3631C59.208 30.6618 58.4594 28.518 58.5615 26.3403V26C58.5615 23.55 59.242 21.5424 60.6031 19.9771C61.9302 18.4119 63.8698 17.6633 66.3538 17.6633C68.4295 17.6633 70.0968 18.2417 71.3558 19.3987C72.6489 20.6237 73.2954 22.3931 73.1933 24.1625L73.1593 24.2646H68.4635C68.4975 23.584 68.2933 22.9035 67.9531 22.359C67.6128 21.8827 67.1024 21.6445 66.3878 21.6445C65.401 21.6445 64.7205 22.0528 64.3462 22.8354C63.9038 23.8563 63.6996 24.9451 63.7677 26.034V26.3743C63.7677 27.7354 63.9719 28.8243 64.3462 29.6069C64.6864 30.3215 65.401 30.7298 66.3878 30.7298ZM84.5925 22.4611H82.721C82.1425 22.4611 81.6661 22.5632 81.2918 22.7334C80.9175 22.9375 80.6453 23.2097 80.4752 23.584V34.3708H75.337V17.9355H80.1689L80.3391 20.3514C80.6113 19.5688 81.0877 18.8882 81.7342 18.3438C82.2786 17.8674 82.9932 17.6292 83.7078 17.6292C84.1842 17.6292 84.6606 17.6973 85.137 17.7994L84.5925 22.4611ZM94.3584 27.1229V27.259H94.4605L97.1827 17.9355H102.661L96.0938 36.7867C95.5834 38.0117 94.9369 38.9985 94.1202 39.7811C93.3036 40.5638 92.0445 40.9721 90.2751 40.9721C89.8328 40.9721 89.4585 40.9381 89.1862 40.87C88.914 40.836 88.4717 40.7339 87.8592 40.5638L88.4716 36.9228L88.7779 36.9909L89.0501 37.0249C89.8668 37.0249 90.4452 36.8888 90.8195 36.6506C91.1938 36.4124 91.4661 36.0381 91.6702 35.5617L92.0786 34.5069L86.362 17.9015H91.8404L94.3584 27.1229ZM114.128 26.1701C114.128 24.809 113.924 23.6521 113.516 22.8354C113.108 21.9848 112.461 21.5764 111.576 21.5764C110.998 21.5764 110.487 21.6785 110.113 21.8827C109.705 22.0868 109.399 22.3931 109.16 22.8014V29.675C109.399 30.0152 109.739 30.2875 110.113 30.4576C110.59 30.6277 111.1 30.7298 111.61 30.6958C112.529 30.6958 113.142 30.3215 113.55 29.5729C113.992 28.5861 114.196 27.5312 114.128 26.4423V26.1701ZM119.267 26.4764C119.267 28.9604 118.688 30.934 117.599 32.4312C116.51 33.9284 114.741 34.7451 112.903 34.677C111.44 34.711 110.079 34.0645 109.194 32.9076V40.6658H104.056V17.9355H108.854L109.058 19.7389C109.875 18.4119 111.338 17.5952 112.903 17.6292C114.945 17.6292 116.51 18.4119 117.633 19.9771C118.824 21.8146 119.403 23.9924 119.301 26.1701V26.4764H119.267ZM127.603 13.8522V17.9355H130.394V21.4743H127.603V29.0284C127.603 29.6069 127.739 30.0152 127.944 30.2875C128.182 30.5597 128.556 30.6958 128.896 30.6958C129.407 30.6958 129.917 30.6618 130.394 30.5597L130.734 34.3708C129.713 34.609 128.658 34.7451 127.569 34.7451C125.868 34.7451 124.609 34.2687 123.724 33.384C122.839 32.4993 122.397 31.0701 122.397 29.1305V21.5424H120.083V18.0035H122.397V13.9202H127.603V13.8522ZM136.825 26.3062C136.825 27.6673 137.029 28.7562 137.471 29.5389C137.914 30.3215 138.628 30.6958 139.683 30.6958C140.704 30.6958 141.418 30.3215 141.827 29.5048C142.269 28.7222 142.473 27.6333 142.473 26.2722V25.9319C142.507 24.809 142.303 23.7202 141.827 22.7334C141.384 21.9167 140.67 21.5424 139.615 21.5424C138.594 21.5424 137.88 21.9507 137.471 22.7674C137.029 23.584 136.825 24.6389 136.825 25.966V26.3062ZM131.687 26C131.584 23.7882 132.333 21.6445 133.796 19.9771C135.191 18.4119 137.165 17.6292 139.649 17.6292C142.167 17.6292 144.107 18.4119 145.502 19.9771C146.931 21.6445 147.714 23.7882 147.611 26V26.3403C147.611 28.8243 146.897 30.8319 145.502 32.3631C144.107 33.9284 142.167 34.677 139.649 34.677C137.131 34.677 135.157 33.8944 133.762 32.3631C132.333 30.6958 131.584 28.518 131.687 26.3403V26ZM154.621 17.9355L154.825 20.2493C155.37 19.4327 156.016 18.7862 156.833 18.3438C157.65 17.8674 158.534 17.6292 159.453 17.6633C161.086 17.6633 162.345 18.1737 163.23 19.2285C164.149 20.2834 164.591 21.9507 164.591 24.2306V34.4048H159.453V24.1965C159.453 23.2438 159.249 22.5972 158.875 22.1889C158.5 21.8146 157.922 21.6104 157.139 21.6104C156.288 21.5764 155.472 21.9507 154.927 22.5972V34.4048H149.823V17.9695H154.621V17.9355ZM174.561 21.5764C173.813 21.5764 173.268 21.8146 172.894 22.359C172.52 22.8695 172.315 23.584 172.213 24.4688L172.247 24.5368H176.671V24.1625C176.671 23.3118 176.501 22.6993 176.161 22.257C175.82 21.7806 175.31 21.5764 174.561 21.5764ZM174.936 34.677C172.486 34.677 170.58 33.9284 169.117 32.3972C167.654 30.8659 166.871 28.7902 166.939 26.6805V26.1021C166.939 23.584 167.586 21.5424 168.913 19.9771C170.24 18.4119 172.111 17.5952 174.561 17.6292C176.807 17.6292 178.542 18.3098 179.801 19.6368C181.129 21.1341 181.809 23.0736 181.707 25.0472V27.7354H172.281L172.247 27.8375C172.383 28.6882 172.69 29.3687 173.302 29.9132C173.881 30.4576 174.629 30.7298 175.616 30.7298C177.181 30.7638 178.747 30.4236 180.176 29.709L181.401 32.8395C180.55 33.418 179.597 33.8603 178.611 34.1666C177.454 34.5069 176.229 34.677 174.936 34.677ZM198.04 27.4632H198.142L199.912 17.9355H204.642L200.762 34.3708H196.407L193.719 25.6597H193.617L190.928 34.3708H186.573L182.694 17.9355H187.424L189.227 27.5312H189.329L192.017 17.9355H195.25L198.04 27.4632ZM215.054 29.743C215.054 29.3347 214.816 28.9944 214.373 28.6541C213.591 28.2118 212.74 27.9396 211.855 27.8034C210.29 27.5653 208.793 26.9868 207.5 26.034C206.513 25.2514 206.003 24.0604 206.037 22.8014C206.037 21.3723 206.717 20.0112 207.874 19.1264C209.099 18.1396 210.766 17.6292 212.808 17.6292C215.02 17.6292 216.755 18.1056 218.048 19.0924C219.273 19.9431 219.988 21.3723 219.92 22.8695L219.886 22.9715H214.918C214.918 22.325 214.748 21.8486 214.407 21.5084C214.067 21.1681 213.557 20.9979 212.842 20.9979C212.298 20.9979 211.855 21.1341 211.481 21.4403C211.141 21.7125 210.937 22.1209 210.937 22.5632C210.971 23.0056 211.175 23.4139 211.549 23.6521C212.332 24.0945 213.216 24.3667 214.101 24.4688C215.7 24.707 217.232 25.3194 218.559 26.2382C219.546 27.0549 220.09 28.2798 219.988 29.5729C219.988 31.0361 219.341 32.2611 218.014 33.2138C216.483 34.2347 214.646 34.7451 212.808 34.643C210.562 34.643 208.793 34.0645 207.5 32.9416C206.207 31.8187 205.56 30.5257 205.628 29.1305L205.662 29.0284H210.324C210.358 29.8111 210.562 30.3555 211.039 30.6958C211.481 31.0361 212.128 31.2062 212.944 31.2062C213.625 31.2062 214.169 31.0701 214.51 30.7979C214.884 30.6277 215.054 30.2194 215.054 29.743Z" fill="white"/>
</svg>
